<svg width="18" height="18" viewBox="0 0 18 18" fill="none" xmlns="http://www.w3.org/2000/svg">
<path d="M9 0C4.0371 0 0 4.0371 0 9C0 13.9629 4.0371 18 9 18C13.9629 18 18 13.9622 18 9C18 4.0378 13.9629 0 9 0ZM9 16.6057C4.80674 16.6057 1.39426 13.194 1.39426 9C1.39426 4.80604 4.80674 1.39426 9 1.39426C13.194 1.39426 16.6057 4.80604 16.6057 9C16.6057 13.194 13.1933 16.6057 9 16.6057Z" fill="#169C00"/>
<path d="M13.1292 5.86971C12.8454 5.61176 12.4041 5.63198 12.1448 5.9171L7.89229 10.5998L5.83783 8.51117C5.56663 8.23649 5.12605 8.23231 4.85208 8.5028C4.57741 8.77259 4.57322 9.21387 4.84371 9.48855L7.41543 12.1028C7.54719 12.2366 7.72565 12.3112 7.91247 12.3112C7.91665 12.3112 7.92154 12.3112 7.92572 12.3119C8.11813 12.3078 8.2994 12.2255 8.42835 12.0833L13.1765 6.85478C13.4352 6.56893 13.4143 6.12835 13.1292 5.86971Z" fill="#169C00"/>
</svg>
