<svg width="82" height="82" viewBox="0 0 82 82" fill="none" xmlns="http://www.w3.org/2000/svg">
<g clip-path="url(#clip0)">
<path d="M6.00586 46.9688C5.34249 46.9688 4.80469 47.5066 4.80469 48.1699V66.4647C4.80469 67.4803 5.63093 68.3065 6.64648 68.3065H56.4038C57.0672 68.3065 57.605 67.7687 57.605 67.1054C57.605 66.442 57.0672 65.9042 56.4038 65.9042H7.20703V48.1699C7.20703 47.5066 6.66923 46.9688 6.00586 46.9688Z" fill="#212C34"/>
<path d="M61.463 68.3066H75.3535C76.3691 68.3066 77.1953 67.4804 77.1953 66.4648V41.4805C77.1953 40.4649 76.3691 39.6387 75.3535 39.6387H6.64648C5.63093 39.6387 4.80469 40.4649 4.80469 41.4805V43.082C4.80469 43.7454 5.34249 44.2832 6.00586 44.2832C6.66923 44.2832 7.20703 43.7454 7.20703 43.082V42.041H74.793V65.9043H61.463C60.7996 65.9043 60.2618 66.4421 60.2618 67.1055C60.2618 67.7688 60.7996 68.3066 61.463 68.3066Z" fill="#212C34"/>
<path d="M77.7559 34.834H76.296C75.6327 34.834 75.0949 35.3718 75.0949 36.0352C75.0949 36.6985 75.6327 37.2363 76.296 37.2363H77.7559C78.7714 37.2363 79.5977 38.0626 79.5977 39.0781V68.8672C79.5977 69.8827 78.7714 70.709 77.7559 70.709H4.24414C3.22859 70.709 2.40234 69.8827 2.40234 68.8672V39.0781C2.40234 38.0626 3.22859 37.2363 4.24414 37.2363H14.8779H14.8793H14.8803H67.1196H67.1205H67.122H71.0306C71.6939 37.2363 72.2318 36.6985 72.2318 36.0352C72.2318 35.3718 71.6939 34.834 71.0306 34.834H67.5339L47.022 18.8624C47.5219 17.9157 47.8065 16.8383 47.8065 15.6953C47.8065 11.9421 44.7531 8.88867 40.9998 8.88867C37.2466 8.88867 34.1934 11.9421 34.1934 15.6953C34.1934 16.8383 34.4778 17.9157 34.9778 18.8624L14.466 34.834H4.24414C1.90394 34.834 0 36.7379 0 39.0781V68.8672C0 71.2074 1.90394 73.1113 4.24414 73.1113H77.7559C80.0961 73.1113 82 71.2074 82 68.8672V39.0781C82 36.7379 80.0961 34.834 77.7559 34.834ZM41 11.291C43.4286 11.291 45.4043 13.2667 45.4043 15.6953C45.4043 18.1239 43.4286 20.0996 41 20.0996C38.5714 20.0996 36.5957 18.1239 36.5957 15.6953C36.5957 13.2667 38.5714 11.291 41 11.291ZM36.4549 20.7569C37.6609 21.841 39.2545 22.502 41 22.502C42.7455 22.502 44.3389 21.841 45.5451 20.7569L63.6238 34.834H18.3762L36.4549 20.7569Z" fill="#212C34"/>
<path d="M24.5804 48.0405C23.9171 48.0405 23.3793 48.5783 23.3793 49.2417V58.5352C23.3793 59.1205 23.801 59.6205 24.3777 59.7193C24.4645 59.7342 24.5279 59.7451 25.5529 59.7451C26.0515 59.7451 26.7775 59.7425 27.8441 59.7366C28.5075 59.7329 29.0422 59.192 29.0386 58.5287C29.0349 57.8653 28.4937 57.3238 27.8307 57.3342C27.2043 57.3378 26.4173 57.341 25.7816 57.3418V49.2419C25.7816 48.5783 25.2438 48.0405 24.5804 48.0405Z" fill="#212C34"/>
<path d="M61.0685 58.5435C61.0685 57.8801 60.5307 57.3423 59.8674 57.3423H57.1851V55.1365H59.581C60.2444 55.1365 60.7822 54.5987 60.7822 53.9353C60.7822 53.272 60.2444 52.7341 59.581 52.7341H57.1851V50.5283H59.8674C60.5307 50.5283 61.0685 49.9905 61.0685 49.3271C61.0685 48.6638 60.5307 48.126 59.8674 48.126H55.9839C55.3205 48.126 54.7827 48.6638 54.7827 49.3271V58.5437C54.7827 59.207 55.3205 59.7448 55.9839 59.7448H59.8674C60.5307 59.7447 61.0685 59.2069 61.0685 58.5435Z" fill="#212C34"/>
<path d="M62.5988 58.3965C62.5988 58.4749 62.6069 58.5515 62.6212 58.6258C62.6412 58.9157 62.7645 59.1895 62.9719 59.3955C63.1969 59.6189 63.5012 59.7442 63.8182 59.7442H63.8228C63.9 59.7439 65.7233 59.7368 66.4521 59.7242C69.2047 59.6759 71.2025 57.2811 71.2025 54.0298C71.2025 50.6119 69.255 48.3154 66.3564 48.3154H63.7999C63.4809 48.3154 63.1752 48.4423 62.9498 48.6681C62.7245 48.8939 62.5981 49.2 62.5988 49.519V49.5259V49.5262V58.3965ZM66.3564 50.7179C68.624 50.7179 68.8002 53.253 68.8002 54.03C68.8002 55.6479 68.0611 57.2933 66.4102 57.3223C66.0882 57.3279 65.5312 57.3324 65.0154 57.3357C65.012 56.2729 65.0077 54.7779 65.0077 54.02C65.0077 53.3858 65.0053 51.8243 65.0033 50.7179H66.3564Z" fill="#212C34"/>
<path d="M16.6496 50.443C17.341 50.443 18.0076 50.6466 18.5774 51.0314C19.1273 51.4027 19.8739 51.2582 20.2453 50.7086C20.6167 50.1588 20.4721 49.4121 19.9224 49.0407C18.954 48.3865 17.8223 48.0405 16.6498 48.0405C13.4231 48.0405 10.7979 50.6656 10.7979 53.8925C10.7979 57.1193 13.423 59.7444 16.6498 59.7444C17.9405 59.7444 19.0992 59.32 20.0009 58.5168C20.1777 58.3594 20.3457 58.1863 20.5001 58.0019C20.9263 57.4936 20.8597 56.7359 20.3513 56.3097C19.843 55.8834 19.0853 55.95 18.6591 56.4585C18.5794 56.5536 18.4934 56.6424 18.4032 56.7226C17.9418 57.1336 17.3519 57.3419 16.6496 57.3419C14.7476 57.3419 13.2 55.7945 13.2 53.8923C13.2 51.9901 14.7475 50.443 16.6496 50.443Z" fill="#212C34"/>
<path d="M48.283 57.3423C47.3692 57.3423 46.4903 56.9744 45.9318 56.3581C45.4864 55.8666 44.7269 55.8291 44.2351 56.2747C43.7436 56.7202 43.7063 57.4799 44.1517 57.9714C45.173 59.0984 46.6789 59.7446 48.283 59.7446C50.2619 59.7446 51.9239 58.4804 52.2349 56.7387C52.4692 55.4265 51.8755 53.713 49.5065 52.8392C48.3705 52.4202 47.3125 51.9639 46.9808 51.8188C46.747 51.6276 46.755 51.3629 46.7708 51.2522C46.7934 51.0954 46.9079 50.7118 47.4837 50.5384C48.7739 50.1498 49.9745 51.0964 50.0081 51.1231C50.5158 51.544 51.269 51.4767 51.6939 50.9711C52.1207 50.4634 52.055 49.7056 51.5472 49.2787C51.4588 49.2044 49.3519 47.4666 46.7907 48.238C45.4922 48.6291 44.5733 49.6533 44.3929 50.9107C44.2232 52.0914 44.7353 53.2272 45.7286 53.8749C45.7817 53.9095 45.8373 53.9398 45.8951 53.9656C45.9489 53.9896 47.2311 54.5604 48.6749 55.0929C48.986 55.2076 49.9914 55.6349 49.8699 56.3163C49.7799 56.8207 49.1617 57.3423 48.283 57.3423Z" fill="#212C34"/>
<path d="M42.1968 53.8925C42.1968 50.6658 39.5717 48.0405 36.3448 48.0405C33.1182 48.0405 30.493 50.6656 30.493 53.8925C30.493 57.1193 33.1182 59.7444 36.3448 59.7444C39.5717 59.7444 42.1968 57.1191 42.1968 53.8925ZM32.8954 53.8925C32.8954 51.9905 34.4428 50.4429 36.3448 50.4429C38.2468 50.4429 39.7944 51.9903 39.7944 53.8925C39.7944 55.7947 38.247 57.3421 36.3448 57.3421C34.4428 57.3421 32.8954 55.7945 32.8954 53.8925Z" fill="#212C34"/>
</g>
<defs>
<clipPath id="clip0">
<rect width="82" height="82" fill="white"/>
</clipPath>
</defs>
</svg>
