<svg width="41" height="41" viewBox="0 0 41 41" fill="none" xmlns="http://www.w3.org/2000/svg">
<path d="M32.9158 38.9937L31.0058 33.3572C30.901 33.0479 30.6108 32.8399 30.2844 32.8399H30.1735V21.7942C30.1735 16.4602 25.834 12.1206 20.4999 12.1206C15.1658 12.1206 10.8263 16.4601 10.8263 21.7942V32.8399H10.7155C10.389 32.8399 10.0988 33.0479 9.99408 33.3572L8.08414 38.9937C8.0053 39.2263 8.04347 39.4825 8.18652 39.682C8.32957 39.8815 8.55999 39.9999 8.80557 39.9999H32.1944C32.4399 39.9999 32.6704 39.8815 32.8134 39.682C32.9565 39.4825 32.9946 39.2263 32.9158 38.9937ZM12.3498 21.7943C12.3498 17.3003 16.0059 13.6441 20.4999 13.6441C24.9939 13.6441 28.6501 17.3003 28.6501 21.7943V32.84H12.3498V21.7943ZM9.86793 38.4765L11.2617 34.3634H29.7381L31.1319 38.4765H9.86793Z" fill="black"/>
<path d="M20.5 1C20.0794 1 19.7383 1.3411 19.7383 1.76172V6.33195C19.7383 6.75258 20.0793 7.09367 20.5 7.09367C20.9206 7.09367 21.2617 6.75258 21.2617 6.33195V1.76172C21.2617 1.3411 20.9206 1 20.5 1Z" fill="black"/>
<path d="M21.0385 8.76051C20.8969 8.61883 20.7003 8.53809 20.5 8.53809C20.2997 8.53809 20.1031 8.61883 19.9615 8.76051C19.8198 8.90295 19.7383 9.09863 19.7383 9.2998C19.7383 9.50014 19.8197 9.6959 19.9615 9.83834C20.1031 9.97994 20.2997 10.0608 20.5 10.0608C20.7003 10.0608 20.8969 9.97994 21.0385 9.83834C21.1801 9.6959 21.2617 9.50014 21.2617 9.2998C21.2617 9.09863 21.1802 8.90295 21.0385 8.76051Z" fill="black"/>
<path d="M8.27481 21.3882H4.77722C4.3566 21.3882 4.0155 21.7293 4.0155 22.1499C4.0155 22.5705 4.3566 22.9116 4.77722 22.9116H8.27488C8.6955 22.9116 9.0366 22.5705 9.0366 22.1499C9.0366 21.7293 8.69543 21.3882 8.27481 21.3882Z" fill="black"/>
<path d="M2.30067 21.6114C2.15906 21.4696 1.96254 21.3882 1.76221 21.3882C1.56187 21.3882 1.36535 21.4696 1.22367 21.6114C1.08199 21.7531 1.00049 21.9496 1.00049 22.1499C1.00049 22.3502 1.08192 22.5468 1.22367 22.6884C1.36535 22.83 1.56187 22.9116 1.76221 22.9116C1.96254 22.9116 2.15906 22.8301 2.30067 22.6884C2.44235 22.5468 2.52393 22.3502 2.52393 22.1499C2.52393 21.9496 2.44235 21.753 2.30067 21.6114Z" fill="black"/>
<path d="M15.3714 7.77861L14.339 5.28619C14.1779 4.89756 13.7324 4.7133 13.3437 4.87395C12.955 5.03498 12.7705 5.48058 12.9315 5.86921L13.9639 8.36163C14.0855 8.65497 14.3691 8.83207 14.668 8.83207C14.7651 8.83207 14.8638 8.81333 14.9592 8.77387C15.3479 8.61277 15.5324 8.16717 15.3714 7.77861Z" fill="black"/>
<path d="M6.71149 15.6139L4.21907 14.5814C3.83029 14.4209 3.38484 14.6051 3.22381 14.9937C3.06286 15.3824 3.24742 15.8279 3.63605 15.9889L6.12847 17.0214C6.22384 17.0608 6.32256 17.0796 6.41968 17.0796C6.71858 17.0796 7.00216 16.9025 7.12373 16.6091C7.28468 16.2204 7.10012 15.7749 6.71149 15.6139Z" fill="black"/>
<path d="M36.5401 21.3882H33.0425C32.6219 21.3882 32.2808 21.7293 32.2808 22.1499C32.2808 22.5705 32.6219 22.9116 33.0425 22.9116H36.5401C36.9608 22.9116 37.3019 22.5705 37.3019 22.1499C37.3019 21.7293 36.9608 21.3882 36.5401 21.3882Z" fill="black"/>
<path d="M39.776 21.6114C39.6344 21.4697 39.4379 21.3882 39.2375 21.3882C39.0372 21.3882 38.8407 21.4696 38.699 21.6114C38.5573 21.7531 38.4758 21.9496 38.4758 22.1499C38.4758 22.3502 38.5573 22.5468 38.699 22.6884C38.8407 22.83 39.0372 22.9116 39.2375 22.9116C39.4379 22.9116 39.6344 22.8301 39.776 22.6884C39.9177 22.5468 39.9993 22.3502 39.9993 22.1499C39.9993 21.9496 39.9178 21.753 39.776 21.6114Z" fill="black"/>
<path d="M35.5628 7.0868C35.2653 6.78943 34.7831 6.78943 34.4855 7.0868L30.7376 10.8348C30.4402 11.1322 30.4402 11.6145 30.7376 11.9121C30.8865 12.0608 31.0814 12.1352 31.2763 12.1352C31.4713 12.1352 31.6662 12.0607 31.8149 11.9121L35.5628 8.1641C35.8602 7.86665 35.8602 7.38433 35.5628 7.0868Z" fill="black"/>
<path d="M10.2621 10.8346L6.51425 7.0868C6.21673 6.78943 5.73456 6.78943 5.43696 7.0868C5.1395 7.38425 5.1395 7.86657 5.43696 8.1641L9.18492 11.912C9.33368 12.0607 9.5286 12.1351 9.72353 12.1351C9.91845 12.1351 10.1134 12.0607 10.2621 11.912C10.5596 11.6145 10.5596 11.1321 10.2621 10.8346Z" fill="black"/>
<path d="M27.6558 4.87391C27.2671 4.71334 26.8216 4.8976 26.6605 5.28615L25.6281 7.77857C25.4672 8.1672 25.6517 8.61273 26.0403 8.77383C26.1357 8.81329 26.2344 8.83203 26.3316 8.83203C26.6304 8.83203 26.914 8.65493 27.0356 8.36159L28.068 5.86917C28.229 5.48039 28.0444 5.03494 27.6558 4.87391Z" fill="black"/>
<path d="M37.7761 14.9938C37.6151 14.6051 37.1695 14.4208 36.7808 14.5815L34.2884 15.6139C33.8997 15.775 33.7152 16.2206 33.8762 16.6092C33.9977 16.9025 34.2813 17.0796 34.5802 17.0796C34.6773 17.0796 34.7761 17.0609 34.8714 17.0215L37.3638 15.989C37.7525 15.828 37.937 15.3824 37.7761 14.9938Z" fill="black"/>
<path d="M20.5002 16.9204C19.2401 16.9204 18.2151 17.9455 18.2151 19.2055V22.8617C18.2151 24.1217 19.2402 25.1467 20.5002 25.1467C21.7601 25.1467 22.7852 24.1216 22.7852 22.8617V19.2055C22.7852 17.9455 21.7602 16.9204 20.5002 16.9204ZM21.2619 22.8617C21.2619 23.2817 20.9202 23.6234 20.5002 23.6234C20.0802 23.6234 19.7384 23.2817 19.7384 22.8617V19.2055C19.7384 18.7855 20.0802 18.4438 20.5002 18.4438C20.9202 18.4438 21.2619 18.7855 21.2619 19.2055V22.8617Z" fill="black"/>
<path d="M20.5002 26.6704C19.2401 26.6704 18.2151 27.6955 18.2151 28.9555C18.2151 30.2155 19.2402 31.2406 20.5002 31.2406C21.7601 31.2406 22.7852 30.2154 22.7852 28.9555C22.7852 27.6955 21.7602 26.6704 20.5002 26.6704ZM20.5002 29.7172C20.0802 29.7172 19.7384 29.3755 19.7384 28.9555C19.7384 28.5355 20.0802 28.1938 20.5002 28.1938C20.9202 28.1938 21.2619 28.5355 21.2619 28.9555C21.2619 29.3755 20.9202 29.7172 20.5002 29.7172Z" fill="black"/>
<rect x="0.5" y="0.5" width="40" height="40" stroke="#212C34" stroke-opacity="0.2"/>
</svg>
