<svg width="37" height="37" viewBox="0 0 37 37" fill="none" xmlns="http://www.w3.org/2000/svg">
<g clip-path="url(#clip0)">
<path d="M17.4903 26.9009C17.2271 26.7077 16.8566 26.7641 16.6632 27.0275L16.5901 27.1269C16.3968 27.3901 16.4531 27.76 16.716 27.9537C16.8216 28.0316 16.9447 28.0691 17.0666 28.0691C17.2479 28.0691 17.427 27.986 17.5429 27.8289L17.6171 27.7281C17.8105 27.4647 17.7537 27.0943 17.4903 26.9009Z" fill="#212C34"/>
<path d="M17.6444 32.5304L16.1226 29.7631L17.5435 27.8278C17.737 27.5644 17.6802 27.1941 17.4167 27.0006C17.1533 26.8071 16.783 26.8639 16.5896 27.1274L14.945 29.3672C14.8086 29.5529 14.7925 29.8007 14.9034 30.0026L16.6075 33.1007V33.1007C16.7153 33.2965 16.9177 33.4073 17.1265 33.4073C17.223 33.4073 17.3208 33.3837 17.4112 33.334C17.6975 33.1765 17.8019 32.8168 17.6444 32.5304Z" fill="#212C34"/>
<path d="M22.055 29.3672L20.4171 27.1365C20.2812 26.9516 20.0511 26.8617 19.8259 26.9063C19.6008 26.9505 19.4216 27.121 19.366 27.3435C19.3233 27.5144 19.3589 27.6953 19.4631 27.8373L20.8771 29.7631L19.3656 32.5116C19.3176 32.5989 19.2924 32.6974 19.2924 32.7971C19.2924 33.0672 19.4753 33.303 19.7369 33.3702C19.7859 33.3829 19.8353 33.389 19.8841 33.389C20.096 33.389 20.2968 33.2747 20.4027 33.0824L22.0965 30.0028C22.2075 29.8008 22.1913 29.5529 22.055 29.3672Z" fill="#212C34"/>
<path d="M22.9928 20.0679C22.7982 19.9657 22.5629 19.9796 22.3818 20.1045C22.0299 20.3469 21.7032 20.6038 21.4111 20.8679C19.8186 22.3076 18.3056 22.1127 18.2463 22.1043C18.2106 22.0987 18.1743 22.0961 18.1384 22.0972C17.509 22.1134 16.3743 21.5382 15.1738 20.5954C14.9902 20.4513 14.8019 20.3139 14.6139 20.187C14.4327 20.0645 14.1984 20.0521 14.0052 20.1549C13.812 20.2575 13.6912 20.4585 13.6912 20.6774V22.7074C13.6912 22.8869 13.7729 23.0566 13.9129 23.169C13.9294 23.1823 13.9466 23.1946 13.9644 23.2059L18.1604 26.0098C18.1611 26.0102 18.1617 26.0107 18.1624 26.0112L18.1734 26.0186C18.2722 26.084 18.386 26.117 18.5003 26.117C18.5964 26.117 18.6925 26.0937 18.7803 26.0467C18.7988 26.0368 18.8166 26.0259 18.8337 26.0143C18.8357 26.013 18.8377 26.0117 18.8397 26.0103C18.8421 26.0088 18.8444 26.0073 18.8467 26.0057L23.0328 23.2085C23.0496 23.1978 23.066 23.1863 23.0818 23.174C23.2254 23.0619 23.3093 22.8899 23.3093 22.7076V20.5918C23.3093 20.3718 23.1875 20.1702 22.9928 20.0679ZM22.1258 22.3909L18.5002 24.8136L14.8747 22.3908V21.8526C15.7575 22.4942 17.0561 23.2811 18.1146 23.281C18.1168 23.281 18.1193 23.281 18.1215 23.281C18.4769 23.3203 20.2894 23.4272 22.1259 21.8161V22.3909H22.1258Z" fill="#212C34"/>
<path d="M19.0839 25.4275C19.0448 25.1929 18.8689 25.0044 18.6375 24.9492C18.4059 24.8943 18.164 24.9828 18.0232 25.1746L16.6631 27.0272C16.4696 27.2907 16.5263 27.661 16.7899 27.8544C16.8953 27.932 17.018 27.9693 17.1396 27.9693C17.3216 27.9693 17.5011 27.8855 17.6171 27.7276L18.9702 25.8847C19.0472 25.7841 19.092 25.6589 19.092 25.525C19.0919 25.4925 19.0892 25.4597 19.0839 25.4275Z" fill="#212C34"/>
<path d="M27.5155 6.35083C27.5037 6.25814 27.2265 4.25753 25.3433 3.46832C25.398 3.11695 25.3923 2.66536 25.1692 2.22602C24.8694 1.63553 24.2777 1.25073 23.4106 1.08216C23.3734 1.07491 23.3357 1.07129 23.2977 1.07129H15.3553C12.1302 1.07129 9.50635 3.69506 9.50635 6.92027V10.0368C9.50635 10.8488 9.78313 11.6406 10.2856 12.2663C10.5347 12.5765 10.8415 13.1182 10.8878 13.9373C10.9058 14.2571 11.1735 14.5042 11.4953 14.4953C11.8155 14.4863 12.0703 14.2241 12.0703 13.9038V9.84052C12.4721 8.17876 13.8435 7.85535 14.0793 7.81167H16.6483C16.9506 7.81167 17.2477 7.76553 17.5318 7.67448C18.0203 7.5178 18.7952 7.22945 19.3595 7.01515C19.737 6.87166 20.1549 6.8664 20.5362 7.00038L23.2865 7.96589C24.6615 8.47312 24.9069 9.68021 24.9373 9.86984V14.7464C24.9373 15.0561 25.1761 15.3131 25.485 15.3361C25.5 15.3372 25.5148 15.3379 25.5295 15.3379C25.8198 15.3378 26.0704 15.1251 26.1144 14.8337C26.1167 14.8185 26.3529 13.2922 27.1149 12.0702C27.38 11.6448 27.5202 11.1598 27.5202 10.6676V6.42555C27.5202 6.4006 27.5186 6.37565 27.5155 6.35083ZM26.3366 10.6673C26.3366 10.9317 26.262 11.1939 26.1208 11.4271V9.82937C26.1208 9.80798 26.1196 9.78672 26.1173 9.76546C26.108 9.67953 25.8635 7.65158 23.6907 6.85341C23.688 6.85245 23.6853 6.8515 23.6827 6.85054L20.9281 5.88352C20.6176 5.77449 20.2927 5.72008 19.9679 5.72008C19.6188 5.72008 19.2698 5.78304 18.9391 5.90882C18.1492 6.20892 17.5374 6.42979 17.1703 6.5475C17.0033 6.60103 16.8277 6.62823 16.6483 6.62823H14.0314C14.006 6.62823 13.9806 6.62987 13.9554 6.63309C13.8552 6.64608 11.495 6.98172 10.901 9.64398C10.8916 9.6863 10.8868 9.7295 10.8868 9.77284V10.9907C10.7579 10.693 10.6897 10.3677 10.6897 10.0369V6.9204C10.6897 4.3479 12.7827 2.25493 15.3551 2.25493H23.238C23.5643 2.32446 23.961 2.46712 24.1114 2.75738C24.2957 3.11264 24.0858 3.60182 24.0856 3.60223C24.0099 3.76322 24.0108 3.94963 24.0877 4.10994C24.1647 4.27024 24.3097 4.38741 24.4827 4.42904C25.9892 4.79169 26.2965 6.2366 26.3365 6.47032V10.6673H26.3366Z" fill="#212C34"/>
<path d="M26.1172 9.76507C26.1079 9.67914 25.8633 7.65118 23.6905 6.85302C23.6879 6.85206 23.6852 6.85111 23.6825 6.85015L20.928 5.88313C20.2834 5.65686 19.5771 5.66589 18.9389 5.90829C18.149 6.20839 17.5372 6.42926 17.1701 6.54704C17.0031 6.60057 16.8274 6.62771 16.6481 6.62771H14.0312C14.0058 6.62771 13.9804 6.62935 13.9552 6.63256C13.855 6.64555 11.4948 6.98119 10.9008 9.64345C10.8914 9.68577 10.8866 9.72897 10.8866 9.77231V14.8594C10.8866 14.8637 10.8867 14.8681 10.8867 14.8725C10.8906 15.0492 11.0157 19.2223 13.8991 21.1309L13.914 21.1414C13.9263 21.1501 13.9387 21.1589 13.9516 21.1676C14.116 21.2786 14.2811 21.3991 14.4426 21.5258C15.2826 22.1854 16.8656 23.2806 18.1144 23.2806C18.1167 23.2806 18.1189 23.2806 18.1213 23.2806C18.1891 23.2881 18.3102 23.2981 18.4744 23.2981C19.1821 23.2981 20.692 23.1126 22.2044 21.7454C22.4582 21.5161 22.7436 21.2917 23.053 21.0786L23.0972 21.0476C23.1117 21.0374 23.1261 21.0272 23.141 21.0172C24.1028 20.3712 25.7686 18.7043 26.1183 14.7986C26.1199 14.7811 26.1207 14.7634 26.1207 14.7458V9.82898C26.1207 9.80765 26.1194 9.78639 26.1172 9.76507ZM24.9371 14.7191C24.6146 18.2438 23.1128 19.6103 22.4811 20.0346C22.4586 20.0497 22.4365 20.0653 22.4143 20.0809L22.3815 20.104C22.0295 20.3464 21.7029 20.6033 21.4108 20.8674C19.8242 22.3017 18.3161 22.1136 18.2422 22.1032C18.2078 22.0981 18.1729 22.0959 18.1381 22.0968C17.5087 22.113 16.374 21.5379 15.1735 20.5951C14.9899 20.4508 14.8016 20.3134 14.6139 20.1867L14.5993 20.1765C14.5851 20.1664 14.571 20.1563 14.5543 20.1453C12.2275 18.6052 12.0752 15.0012 12.0701 14.8508V9.84006C12.4734 8.17222 13.8532 7.8525 14.0781 7.81121H16.6481C16.9504 7.81121 17.2475 7.76507 17.5316 7.67402C18.0201 7.51734 18.7951 7.229 19.3593 7.01469C19.7368 6.8712 20.1547 6.86594 20.536 6.99992L23.2863 7.96543C24.6613 8.47266 24.9067 9.67975 24.9371 9.86938V14.7191H24.9371Z" fill="#212C34"/>
<path d="M19.0293 25.2607C18.9371 25.0762 18.7556 24.9531 18.5501 24.9356C18.3451 24.9187 18.145 25.0088 18.023 25.1751L16.6055 27.1057C16.4123 27.369 16.4687 27.7391 16.7318 27.9326C16.8374 28.0103 16.9602 28.0478 17.082 28.0478C17.2635 28.0478 17.4428 27.9645 17.5588 27.8071L18.9764 25.8836C19.0514 25.7818 19.0918 25.6518 19.0918 25.5255C19.0919 25.4337 19.0704 25.3429 19.0293 25.2607Z" fill="#212C34"/>
<path d="M19.0671 34.7883C18.8448 34.5558 18.4775 34.5434 18.2402 34.7606L18.1049 34.8843C17.9023 35.0695 17.8537 35.3697 17.9876 35.6094L17.9918 35.6169C18.0821 35.7788 18.2433 35.889 18.427 35.9145C18.4542 35.9183 18.4814 35.9201 18.5085 35.9201C18.6643 35.9201 18.8152 35.8585 18.9269 35.7467L19.058 35.6156C19.2854 35.3881 19.2895 35.0206 19.0671 34.7883Z" fill="#212C34"/>
<path d="M18.8951 34.8848L18.7598 34.761C18.5225 34.5439 18.1551 34.5563 17.9328 34.7887C17.7104 35.0213 17.7145 35.3888 17.942 35.6162L18.0733 35.7474C18.1851 35.8591 18.3359 35.9207 18.4916 35.9207C18.5195 35.9207 18.5474 35.9188 18.5754 35.9147C18.7597 35.8884 18.9209 35.7768 19.0105 35.6135L19.0147 35.6061C19.1458 35.3668 19.0964 35.0688 18.8951 34.8848Z" fill="#212C34"/>
<path d="M18.9051 34.8937L18.9044 34.893C18.813 34.8075 18.6948 34.7512 18.5646 34.7369C18.3902 34.7179 18.2203 34.777 18.0968 34.892L18.095 34.8937C17.9754 35.0028 17.9057 35.1562 17.9022 35.3181C17.8988 35.4801 17.9618 35.6363 18.0766 35.7505L18.0828 35.7567C18.1982 35.8715 18.3491 35.9288 18.5 35.9288C18.6515 35.9288 18.8029 35.871 18.9184 35.7556L18.9246 35.7494C19.0389 35.635 19.1015 35.4789 19.0978 35.3173C19.0942 35.1557 19.0246 35.0026 18.9051 34.8937Z" fill="#212C34"/>
<path d="M18.6919 24.9522C18.4468 24.8738 18.1779 24.9647 18.0287 25.1746C17.8617 25.4096 17.8893 25.7299 18.0927 25.9342C18.2071 26.0492 18.359 26.1081 18.512 26.1081C18.6309 26.1081 18.7504 26.0726 18.8535 26C19.011 25.8892 19.1047 25.7087 19.1047 25.5161V25.5146C19.1047 25.2571 18.9372 25.0305 18.6919 24.9522Z" fill="#212C34"/>
<path d="M18.9808 25.1701L18.9758 25.1633C18.8239 24.9578 18.5573 24.8732 18.3147 24.9531C18.0721 25.033 17.9082 25.2597 17.9082 25.5151V25.5252C17.9082 25.7431 18.0305 25.9417 18.2225 26.0447C18.3094 26.0914 18.4054 26.1145 18.5012 26.1145C18.6168 26.1145 18.7323 26.081 18.8315 26.0152C18.9668 25.9257 19.0594 25.7844 19.0877 25.6247C19.1159 25.465 19.0773 25.3006 18.9808 25.1701Z" fill="#212C34"/>
<path d="M25.5395 23.3109C25.4782 23.1488 25.3489 23.0218 25.1858 22.9634L22.9169 22.15C22.8985 22.1435 22.8794 22.1376 22.8604 22.1329C22.6985 22.0924 22.5269 22.1221 22.3881 22.215L18.1842 25.0241C18.1831 25.0249 18.1818 25.0257 18.1807 25.0265L18.5108 25.5173L18.1733 25.0315C18.05 25.113 17.9617 25.238 17.9258 25.3815C17.9061 25.4602 17.9029 25.5424 17.9163 25.6225C17.9315 25.714 17.968 25.8006 18.023 25.8755L21.1009 30.0674C21.2127 30.2198 21.3902 30.309 21.5777 30.309C21.5906 30.309 21.6035 30.3085 21.6164 30.3076C21.818 30.2943 21.999 30.1793 22.0963 30.0022L25.5045 23.8056C25.5881 23.6537 25.6009 23.4728 25.5395 23.3109ZM21.5061 28.6196L19.3429 25.6733L22.7979 23.3646L24.1331 23.8433L21.5061 28.6196Z" fill="#212C34"/>
<path d="M19.0831 25.4233C19.0553 25.2644 18.9639 25.1238 18.8299 25.0339L14.6119 22.2154C14.4777 22.1256 14.3122 22.0948 14.1545 22.1298C14.1303 22.1352 14.1065 22.1421 14.0832 22.1505L11.8143 22.9638C11.6511 23.0223 11.5219 23.1493 11.4606 23.3113C11.3992 23.4734 11.412 23.6541 11.4955 23.806L14.9037 30.0027C15.001 30.1797 15.182 30.2948 15.3836 30.308C15.3964 30.3088 15.4093 30.3092 15.4222 30.3092C15.6098 30.3092 15.7872 30.2201 15.8992 30.0676L17.5438 27.8278C17.5451 27.8261 17.5464 27.8242 17.5477 27.8224L18.9772 25.8754C19.0726 25.7454 19.1109 25.5822 19.0831 25.4233ZM16.5899 27.1271C16.5885 27.129 16.5871 27.1309 16.5857 27.1329L15.4938 28.62L12.8667 23.8437L14.2021 23.365L17.657 25.6737L16.5899 27.1271Z" fill="#212C34"/>
<path d="M35.9708 33.4128L35.2075 28.8032C34.9669 27.3504 33.9573 26.1367 32.5726 25.6359L25.1875 22.964C24.9598 22.8817 24.7053 22.9462 24.5444 23.1269C24.3834 23.3075 24.3486 23.568 24.4566 23.7846L25.9986 26.8768L24.4856 26.9001C24.2801 26.9033 24.091 27.0127 23.9861 27.1893C23.8811 27.366 23.8752 27.5843 23.9705 27.7663L24.591 28.9512L18.2402 34.7609C18.2337 34.7668 18.2274 34.7728 18.2212 34.7791L18.0901 34.9102C17.9043 35.096 17.8632 35.382 17.9894 35.6125L17.994 35.6209C18.0978 35.8106 18.2969 35.9287 18.5132 35.9287H33.8374C34.474 35.9287 35.0752 35.6502 35.4868 35.1648C35.8985 34.6793 36.0749 34.0407 35.9708 33.4128ZM34.5843 34.3993C34.3978 34.6192 34.1256 34.7452 33.8375 34.7452H20.0107L25.7263 29.5168C25.9245 29.3356 25.9758 29.0436 25.8511 28.8057L25.465 28.0686L26.957 28.0456C27.1604 28.0425 27.3478 27.9351 27.4535 27.7614C27.5591 27.5876 27.5682 27.3718 27.4775 27.1898L26.1762 24.5801L32.1703 26.7487C33.153 27.1041 33.8695 27.9655 34.0402 28.9964L34.8035 33.6061C34.8035 33.6062 34.8035 33.6062 34.8035 33.6062C34.8506 33.8905 34.7707 34.1795 34.5843 34.3993Z" fill="#212C34"/>
<path d="M18.9102 34.8985L18.9033 34.8923C18.6691 34.6802 18.3094 34.6897 18.0866 34.9137L18.0804 34.92C17.9119 35.0895 17.8619 35.3438 17.9537 35.5645C18.0455 35.7852 18.2611 35.929 18.5001 35.929H18.5131C18.7577 35.929 18.9772 35.7783 19.0651 35.55C19.1533 35.3216 19.0917 35.0627 18.9102 34.8985Z" fill="#212C34"/>
<path d="M18.8917 34.8814C18.7573 34.7605 18.5751 34.7075 18.3967 34.7379C18.2185 34.7681 18.0639 34.8782 17.9769 35.0366L17.9728 35.0441C17.8481 35.2715 17.886 35.5537 18.0664 35.7402L18.0685 35.7424C18.1845 35.8622 18.339 35.9227 18.4939 35.9227C18.6364 35.9227 18.7793 35.8714 18.8925 35.768L18.8988 35.7623C18.9525 35.7134 18.9968 35.6548 19.0293 35.5897C19.1485 35.3516 19.0896 35.0594 18.8917 34.8814Z" fill="#212C34"/>
<path d="M18.9169 34.9174L18.9145 34.9149C18.9129 34.9133 18.9113 34.9117 18.9098 34.9102L18.7785 34.7791C18.7724 34.7729 18.766 34.7668 18.7596 34.761L12.4088 28.9513L13.0294 27.7664C13.1248 27.5844 13.1188 27.366 13.0139 27.1894C12.9089 27.0128 12.7198 26.9034 12.5144 26.9002L11.0012 26.8769L12.5432 23.7847C12.6512 23.5681 12.6163 23.3076 12.4555 23.1269C12.2946 22.9463 12.0398 22.8817 11.8123 22.9641L4.42725 25.636C3.04256 26.1367 2.03289 27.3504 1.79233 28.8032L1.02896 33.4129C0.924984 34.041 1.10149 34.6795 1.51315 35.1649C1.92488 35.6503 2.5261 35.9287 3.16253 35.9287H18.4998C18.7395 35.9287 18.9554 35.7842 19.0467 35.5627C19.1381 35.3412 19.0869 35.0864 18.9169 34.9174ZM3.1626 34.7453C2.87439 34.7453 2.60218 34.6193 2.41584 34.3994C2.22949 34.1796 2.14964 33.8905 2.19668 33.6062L2.96005 28.9965C3.13074 27.9654 3.84722 27.1042 4.82988 26.7487L10.824 24.5802L9.5227 27.1897C9.43192 27.3718 9.44094 27.5875 9.54669 27.7614C9.65231 27.9351 9.83982 28.0425 10.0432 28.0455L11.5352 28.0686L11.1491 28.8057C11.0245 29.0436 11.0758 29.3356 11.2739 29.5168L16.9895 34.7453H3.1626Z" fill="#212C34"/>
<path d="M20.5139 27.63C20.5567 27.4591 20.5211 27.2782 20.4168 27.1362L18.9767 25.175C18.8254 24.9688 18.5585 24.8869 18.3156 24.9666C18.1844 25.0096 18.0763 25.0964 18.0044 25.2073L16.5907 27.1256C16.5704 27.1529 16.5524 27.1823 16.5372 27.2128C16.4403 27.4066 16.4571 27.6378 16.5808 27.8156L17.1829 28.6801L16.5415 32.7227C16.5209 32.8525 16.5442 32.9854 16.6075 33.1006L17.9814 35.5985C18.0853 35.7877 18.2841 35.9051 18.4999 35.9051C18.7157 35.9051 18.9144 35.7877 19.0184 35.5985L20.4025 33.0821C20.4505 32.9947 20.4757 32.8966 20.4757 32.797V32.7966C20.4757 32.7656 20.4732 32.7345 20.4684 32.7039L19.83 28.6802L20.4256 27.8252C20.4664 27.766 20.4966 27.6997 20.5139 27.63ZM18.4999 34.0855L17.7421 32.7079L18.3891 28.6303C18.413 28.4792 18.3776 28.3249 18.2902 28.1994L17.7943 27.4873L18.5016 26.5276L19.2125 27.4959L18.7226 28.1994C18.6352 28.3248 18.5998 28.4792 18.6237 28.6303L19.2677 32.6893L18.4999 34.0855Z" fill="#212C34"/>
</g>
<rect x="0.5" y="0.5" width="36" height="36" stroke="#212C34" stroke-opacity="0.2"/>
<defs>
<clipPath id="clip0">
<rect x="1" y="1" width="35" height="35" fill="white"/>
</clipPath>
</defs>
</svg>
