<svg width="72" height="72" viewBox="0 0 72 72" fill="none" xmlns="http://www.w3.org/2000/svg">
<g clip-path="url(#clip0)">
<path d="M70.6364 29.1479C69.8182 28.3297 68.6591 27.7842 67.4318 27.7842H60.6136L42.4091 8.89786C42.2045 7.39786 41.5909 6.10241 40.5682 5.14786C39.4091 3.92059 37.7727 3.23877 36 3.23877C34.2273 3.23877 32.5909 3.98877 31.4318 5.14786C30.4091 6.17059 29.7955 7.46604 29.5909 8.89786L11.3864 27.8524H4.56818C3.34091 27.8524 2.18182 28.3297 1.36364 29.216C0.545455 30.0342 0 31.1933 0 32.4206V64.1933C0 65.4206 0.545455 66.5797 1.36364 67.3979C2.18182 68.216 3.34091 68.7615 4.56818 68.7615H67.4318C68.6591 68.7615 69.8182 68.216 70.6364 67.3979C71.4545 66.5797 72 65.4206 72 64.1933V32.4206C72 31.1251 71.4545 30.0342 70.6364 29.1479ZM34.0909 7.73877C34.5682 7.2615 35.25 6.92059 36 6.92059C36.75 6.92059 37.4318 7.2615 37.9091 7.73877C38.3864 8.21604 38.7273 8.89786 38.7273 9.64786C38.7273 10.3979 38.3864 11.0797 37.9091 11.557L37.8409 11.6251C37.3636 12.1024 36.6818 12.3751 36 12.3751C35.25 12.3751 34.5682 12.1024 34.0909 11.557C33.6136 11.0797 33.2727 10.3979 33.2727 9.64786C33.2727 8.89786 33.5455 8.21604 34.0909 7.73877ZM30.5455 13.1933C30.8182 13.6024 31.0909 13.9433 31.3636 14.216C32.5909 15.4433 34.2273 16.1933 36 16.1933C37.7045 16.1933 39.2727 15.5115 40.4318 14.4206C40.5 14.3524 40.5 14.3524 40.5682 14.2842C40.9091 13.9433 41.1818 13.6024 41.3864 13.2615L55.4318 27.9206H16.5L30.5455 13.1933ZM68.0455 64.807C67.9091 64.9433 67.7045 65.0115 67.4318 65.0115H4.56818C4.36364 65.0115 4.15909 64.9433 3.95455 64.7388C3.81818 64.6024 3.68182 64.3979 3.68182 64.1251V32.4206C3.68182 32.216 3.75 32.0115 3.88636 31.807C4.02273 31.6706 4.22727 31.6024 4.5 31.6024H67.3636C67.5682 31.6024 67.7727 31.6706 67.9773 31.807C68.1136 31.9433 68.1818 32.1479 68.1818 32.4206V64.1933H68.25C68.25 64.3979 68.1818 64.6024 68.0455 64.807Z" fill="#212C34"/>
<path d="M34.6364 41.148C34.0227 40.7389 33.4091 40.4662 32.6591 40.3299C31.9773 40.1253 31.1591 40.0571 30.3409 40.0571C29.3182 40.0571 28.5 40.1253 27.9545 40.1253C27.3409 40.1253 27 40.1253 26.9318 40.1935C25.9773 40.2617 25.3636 40.7389 25.0909 41.5571C25.0227 41.6935 25.0227 41.898 24.9545 42.1026C24.9545 42.1708 24.9545 42.3071 24.9545 42.3753C24.9545 42.5117 24.9545 42.5799 24.9545 42.648V42.9208C24.9545 42.9889 24.9545 43.1253 24.9545 43.2617V43.5344C24.9545 43.6026 24.9545 43.6708 24.9545 43.7389C24.9545 43.9435 24.9545 44.4208 24.9545 45.3071C24.9545 45.7162 24.9545 46.0571 24.9545 46.3299C24.9545 46.5344 24.9545 46.7389 24.9545 46.8753C24.9545 51.0344 24.8864 53.6935 24.8864 54.8526C24.8864 55.9435 25.5682 56.5571 26.8636 56.5571C27.4773 56.5571 28.0227 56.4208 28.3636 56.148C28.7045 55.8753 28.9091 55.398 28.9091 54.8526C28.9091 54.5117 28.9091 53.898 28.9091 53.0117C28.9091 52.6026 28.9091 52.2617 28.9091 51.8526C28.9091 51.648 28.9091 51.5117 28.9091 51.3753H29.4545C30.2045 51.3753 30.8864 51.3753 31.4318 51.3071C31.9773 51.3071 32.3864 51.2389 32.6591 51.1708C33.2727 51.0344 33.8182 50.8299 34.3636 50.4889C34.8409 50.148 35.3182 49.7389 35.6591 49.1935C36.0682 48.7162 36.3409 48.1708 36.5454 47.5571C36.75 47.0117 36.8182 46.398 36.8864 45.7844C36.9545 44.7617 36.8182 43.8753 36.4091 43.0571C36 42.3071 35.4545 41.6253 34.6364 41.148ZM33 46.2617C32.9318 46.4662 32.7954 46.6708 32.7273 46.8753C32.4545 47.2844 32.1818 47.4889 31.7727 47.6253C31.5682 47.6935 31.2954 47.6935 30.9545 47.7617C30.6136 47.7617 30.2045 47.7617 29.6591 47.7617H28.9773V47.3526C28.9773 47.0799 28.9773 46.8071 28.9773 46.6026C28.9773 46.0571 28.9773 45.4435 28.9773 44.5571V43.6708V43.6026H29.25C29.4545 43.6026 29.8636 43.6026 30.4091 43.6026C31.1591 43.6026 31.7045 43.6708 32.1136 43.8753C32.4545 44.0117 32.7273 44.2162 32.8636 44.4889C33 44.7617 33.1364 45.1026 33.1364 45.5117C33.1364 45.7844 33.0682 46.0571 33 46.2617Z" fill="#212C34"/>
<path d="M18.341 40.5342C17.3864 40.1251 16.3637 39.9888 15.2728 39.9888C13.2274 39.9888 11.3183 40.7388 9.75008 42.3751C8.9319 43.1933 8.31826 44.1479 7.90917 45.1706C7.50008 46.1933 7.29553 47.3524 7.29553 48.6479C7.29553 51.0342 8.11371 52.9433 9.6819 54.4433C10.5001 55.1933 11.3183 55.7388 12.2728 56.0797C13.2274 56.4206 14.1819 56.6251 15.2046 56.6251C16.3637 56.6251 17.3864 56.4206 18.341 56.0115C19.2955 55.6024 20.1819 54.9888 20.9319 54.1706C21.6819 53.3524 22.2955 52.3979 22.7046 51.4433C23.1137 50.4206 23.3183 49.3297 23.3183 48.1706C23.3183 45.8524 22.5001 43.8751 20.9319 42.3751C20.1137 41.4888 19.2955 40.9433 18.341 40.5342ZM19.091 49.9433C18.8864 50.4888 18.6137 51.0342 18.2046 51.5115C17.4546 52.466 16.5001 52.8751 15.4092 52.8751C14.7955 52.8751 14.2501 52.807 13.7728 52.6024C13.2955 52.3979 12.8864 52.1251 12.4774 51.6479C12.0683 51.2388 11.7955 50.7615 11.591 50.216C11.3864 49.6706 11.3183 49.0569 11.3183 48.3751C11.3183 47.6933 11.3864 47.0115 11.591 46.466C11.7955 45.9206 12.0683 45.3751 12.4092 44.966C13.1592 44.0797 14.0455 43.6706 15.1364 43.6706C15.7501 43.6706 16.2274 43.8069 16.7728 43.9433C17.2501 44.1479 17.7274 44.4888 18.1364 44.8979C18.5455 45.307 18.8864 45.7842 19.091 46.3297C19.2274 46.8751 19.3637 47.4888 19.3637 48.1706C19.3637 48.7842 19.2955 49.3979 19.091 49.9433Z" fill="#212C34"/>
<path d="M47.5909 52.8068C47.4545 52.8068 47.25 52.8068 46.9091 52.8068C46.6363 52.8068 46.4318 52.8068 46.1591 52.8068C45.6136 52.8068 45 52.8068 44.25 52.875C43.7045 52.875 43.0227 52.875 42.1363 52.875V50.9659C42.1363 50.625 42.1363 50.2841 42.1363 50.0795H46.2273C46.7727 50.0795 47.1818 49.9432 47.5227 49.6705C47.7954 49.3977 48 48.9886 48 48.4432C48 47.7614 47.8636 47.2841 47.4545 47.0114C47.25 46.875 47.0454 46.8068 46.7727 46.7386C46.5 46.6705 46.2273 46.6705 45.9545 46.6705C45 46.6705 43.9091 46.7386 42.6136 46.7386H42.2727L42.3409 44.8977V43.6705H42.75C44.1818 43.6705 45.4091 43.6705 46.2954 43.6705C47.1818 43.6705 47.6591 43.6705 47.8636 43.6023H47.9318C48.3409 43.4659 48.6136 43.2614 48.75 42.9205C48.8863 42.6477 49.0227 42.2386 48.9545 41.7614C48.9545 41.5568 48.8863 41.2841 48.8182 41.1477C48.75 40.9432 48.6136 40.7386 48.4773 40.6023C48.3409 40.4659 48.1363 40.3295 47.9318 40.2614C47.7273 40.1932 47.5227 40.125 47.25 40.125H46.7045H45.3409C44.25 40.125 42.9545 40.125 41.5227 40.125H40.6363C40.0227 40.125 39.5454 40.2614 39.2045 40.5341C39 40.6705 38.8636 40.875 38.7273 41.0795C38.5909 41.2841 38.5909 41.5568 38.5227 41.8295C38.5227 42.5795 38.5227 43.3977 38.5227 44.4205V45.9205V47.0114C38.5227 48.0341 38.5227 48.9886 38.5227 50.0114C38.5227 50.5568 38.5227 51.0341 38.5227 51.4432C38.5227 51.8523 38.5227 52.2614 38.5227 52.5341V53.2841V53.5568C38.5227 53.6932 38.5227 53.7614 38.5227 53.8977C38.5227 54.0341 38.5227 54.1705 38.5227 54.3068C38.5227 54.6477 38.5909 54.9205 38.7273 55.1932C38.8636 55.4659 39.0682 55.6705 39.2727 55.8068C39.4772 55.9432 39.75 56.0114 40.1591 56.0795C40.5 56.1477 40.9091 56.1477 41.3863 56.1477H47.6591C48.2045 56.1477 48.6818 55.9432 48.9545 55.6705C49.2273 55.3295 49.4318 54.9205 49.4318 54.3068C49.4318 53.7614 49.2954 53.3523 49.0227 53.0114C48.5454 53.0114 48.1363 52.8068 47.5909 52.8068Z" fill="#212C34"/>
<path d="M64.6363 49.8071V42.0344C64.6363 40.7389 64.0227 40.0571 62.7272 40.0571C62.3863 40.0571 62.1136 40.1253 61.8409 40.1935C61.5681 40.2617 61.3636 40.398 61.159 40.6026C60.9545 40.8071 60.8863 41.0117 60.75 41.2844C60.6818 41.5571 60.6136 41.8299 60.6136 42.2389L60.6818 46.6026C60.6818 47.4208 60.6818 48.3071 60.6818 49.2617L60.2045 48.5117L55.159 41.4208C55.0227 41.2162 54.8181 41.0117 54.6818 40.8753C54.5454 40.7389 54.3409 40.5344 54.2045 40.4662C54.0681 40.3299 53.8636 40.2617 53.659 40.1935C53.4545 40.1253 53.25 40.1253 53.0454 40.1253C52.5 40.1253 51.9545 40.2617 51.5454 40.5344C51.2727 40.6708 51.1363 40.8753 51 41.0799C50.8636 41.2844 50.7954 41.5571 50.7954 41.8299V44.4208V49.3299C50.7954 50.6253 50.7954 51.7162 50.7954 52.6026C50.7954 53.7617 50.7954 54.4435 50.7954 54.648C50.7954 55.1935 51 55.6708 51.409 55.9435C51.75 56.2162 52.2272 56.3526 52.8409 56.3526C53.4545 56.3526 53.9318 56.148 54.2045 55.8071C54.5454 55.4662 54.6818 54.9889 54.6818 54.3753C54.6818 54.1708 54.6818 53.6935 54.6818 52.8753C54.6818 52.1935 54.6818 51.3071 54.6818 50.2162C54.6818 49.1253 54.6818 48.2389 54.6818 47.4208C54.6818 47.148 54.6818 46.8753 54.6818 46.6708L60.409 54.8526C60.5454 55.0571 60.6818 55.2617 60.8181 55.4662C60.9545 55.6708 61.0909 55.8071 61.2272 55.8753C61.3636 56.0117 61.5681 56.0799 61.7727 56.148C61.9772 56.2162 62.1818 56.2162 62.3863 56.2162C63 56.2162 63.4772 56.0799 63.9545 55.7389C64.159 55.6026 64.3636 55.398 64.5 55.1253C64.6363 54.9208 64.7045 54.648 64.7045 54.3753C64.7045 53.4889 64.7045 52.4662 64.7045 51.3071L64.6363 50.4208V49.8071Z" fill="#212C34"/>
</g>
<defs>
<clipPath id="clip0">
<rect width="72" height="72" fill="white"/>
</clipPath>
</defs>
</svg>
