<svg width="41" height="39" viewBox="0 0 41 39" fill="none" xmlns="http://www.w3.org/2000/svg">
<path d="M10.2535 1.04923C9.62586 1.16237 9.08961 1.44369 8.62953 1.90237C8.22734 2.30295 7.9775 2.74022 7.81906 3.32427C7.71852 3.70038 7.71852 4.41592 7.81906 4.79204C7.9775 5.37303 8.2243 5.8103 8.62953 6.217C9.03781 6.62369 9.50703 6.88972 10.0798 7.03344C10.4546 7.12824 11.1127 7.12518 11.4966 7.03038C12.106 6.87749 12.7641 6.45857 13.142 5.97543C13.4771 5.55344 13.6873 5.08253 13.7788 4.55964C14.0652 2.92369 12.9378 1.33667 11.2803 1.04617C10.9604 0.991128 10.5704 0.991128 10.2535 1.04923Z" fill="#212C34"/>
<path d="M31.6211 1.07682C30.4267 1.3031 29.5035 2.16541 29.1958 3.33963C29.1257 3.6026 29.1166 3.70963 29.1166 4.0888C29.1166 4.46798 29.1257 4.575 29.1958 4.83798C29.6193 6.46169 31.2494 7.45244 32.8551 7.05798C33.9367 6.79194 34.7472 6.00607 35.0823 4.89913C35.1615 4.64533 35.1676 4.58417 35.1676 4.0888C35.1676 3.59343 35.1615 3.53227 35.0823 3.27847C34.6801 1.93913 33.5863 1.08293 32.2305 1.04318C31.9837 1.03707 31.7704 1.0493 31.6211 1.07682Z" fill="#212C34"/>
<path d="M20.1891 6.6021L20.18 9.42449L20.0033 9.4459C19.8174 9.47036 19.595 9.56821 19.4183 9.70276C19.3604 9.74557 18.8638 10.3204 18.3153 10.9748C17.6359 11.7913 17.3159 12.1552 17.3007 12.1276C17.2885 12.1032 17.2002 11.8127 17.1057 11.4824C17.0113 11.1491 16.8985 10.7761 16.8559 10.6568C16.4933 9.64772 15.7041 8.74871 14.7535 8.26863C14.4824 8.13102 14.068 7.98425 13.7206 7.90168C13.4556 7.84053 13.3702 7.83747 10.8779 7.82829C8.07478 7.81606 8.1022 7.81301 7.54158 7.99342C6.46603 8.33284 5.41181 9.25631 4.92736 10.2776C4.81767 10.507 4.71713 10.8617 4.04682 13.3233C3.88838 13.9073 3.29424 16.0753 3.05353 16.9468C2.92557 17.4177 2.81283 17.8397 2.80369 17.8886L2.7915 17.9712L4.12299 17.9651L5.45752 17.9559L5.99986 15.9836C6.80423 13.0511 6.81642 13.0083 6.95353 12.5129L7.0815 12.0542L7.40751 12.0451C7.58728 12.042 7.73353 12.0451 7.73353 12.0512C7.73353 12.0665 6.19181 17.8275 6.16134 17.9162C6.14611 17.9681 6.38377 17.9712 10.884 17.9712C13.4921 17.9712 15.6249 17.9651 15.6249 17.959C15.6249 17.9498 15.433 17.274 15.1953 16.4514C14.1594 12.8371 13.9491 12.1032 13.9491 12.0726C13.9491 12.0512 14.0619 12.039 14.2813 12.039H14.6134L14.7048 12.3203C14.8206 12.675 14.9089 12.9533 15.2593 14.0877C15.4147 14.5831 15.5792 15.0723 15.6249 15.1733C15.8016 15.5616 16.1338 15.8949 16.4506 15.9989C16.801 16.1181 17.2428 16.0019 17.5841 15.7053C17.6633 15.6381 18.5073 14.6412 19.4579 13.4884C21.3744 11.1705 21.4109 11.1185 21.4384 10.7149C21.4536 10.455 21.3987 10.2195 21.2769 10.0391C21.2342 9.97797 21.2007 9.91987 21.2007 9.91375C21.2007 9.90458 21.5846 9.89846 22.0538 9.89846H22.9069V6.84061V3.78276H21.5511H20.1952L20.1891 6.6021Z" fill="#212C34"/>
<path d="M27.7577 7.83445C27.1909 7.92313 26.8192 8.11577 26.4231 8.52553C26.2464 8.709 20.6767 15.3996 20.3233 15.8521C19.8449 16.4668 19.8845 17.2068 20.4269 17.7449C20.9784 18.2954 21.7766 18.329 22.3373 17.8214C22.4043 17.7602 23.7419 16.1916 25.308 14.3324C26.8741 12.4732 28.1751 10.9321 28.1964 10.9076C28.233 10.8709 28.2391 11.4519 28.2391 14.7697V18.6745H14.6195H1V20.4022V22.1299H14.6195H28.2391L28.2482 29.3097C28.2573 37.3091 28.236 36.5752 28.4645 37.0369C28.6047 37.3183 28.7723 37.5048 29.0404 37.6883C29.3634 37.9023 29.6376 37.9849 30.0367 37.9849C30.4054 37.9849 30.573 37.9451 30.8746 37.7892C31.2555 37.5935 31.5327 37.251 31.6881 36.7923L31.7582 36.5783L31.7673 29.3525L31.7734 22.1299H32.1238H32.4742L32.4834 29.2761C32.4895 35.9116 32.4955 36.4376 32.5443 36.618C32.6327 36.9391 32.7972 37.2296 33.0196 37.4497C33.3609 37.7892 33.7326 37.939 34.2262 37.939C35.0671 37.939 35.6917 37.4528 35.9385 36.6088C35.9903 36.4376 35.9934 36.0003 36.0025 29.2761L36.0086 22.1299H38.0043H40V20.4022V18.6745L39.1255 18.6684L38.248 18.6592L38.2328 14.0725L38.2176 9.48569L38.1353 9.28082C38.0165 8.98421 37.9098 8.81297 37.7057 8.5928C37.3888 8.25644 37.0049 8.03321 36.4656 7.88338L36.1762 7.80387L32.0934 7.79776C28.8759 7.7947 27.9557 7.80082 27.7577 7.83445Z" fill="#212C34"/>
<rect x="0.5" y="0.5" width="40" height="38" stroke="#212C34" stroke-opacity="0.2"/>
</svg>
