<svg width="28" height="28" viewBox="0 0 28 28" fill="none" xmlns="http://www.w3.org/2000/svg">
<path d="M14.2374 0.861328C19.2686 0.861328 23.3618 4.95456 23.3618 9.9857C23.3618 16.3093 14.2285 27.1113 14.2285 27.1113C14.2285 27.1113 5.11307 15.9983 5.11307 9.9857C5.11307 4.95456 9.20614 0.861328 14.2374 0.861328ZM11.4844 12.6573C12.2435 13.4163 13.2404 13.7958 14.2374 13.7958C15.2343 13.7958 16.2315 13.4163 16.9903 12.6573C18.5084 11.1394 18.5084 8.66952 16.9903 7.15146C16.2552 6.41606 15.2774 6.01103 14.2374 6.01103C13.1975 6.01103 12.2198 6.41622 11.4844 7.15146C9.96637 8.66952 9.96637 11.1394 11.4844 12.6573Z" fill="black"/>
</svg>
