<svg width="510" height="240" viewBox="0 0 510 240" fill="none" xmlns="http://www.w3.org/2000/svg">
<path d="M129 42.6513C56.6 49.1066 12.8333 16.9068 0 0V200H510V55.9078C486.8 13.0259 461 29.2027 451 42.6513C435.167 63.9769 382 93.8329 296 42.6513C188.5 -21.3256 219.5 34.5821 129 42.6513Z" fill="#3FAFE2" fill-opacity="0.33"/>
<path d="M245.74 58.5441C203.299 28.8353 65.5627 46.1654 2 58.5441V183H509V52.522C495.82 62.7261 463.255 77.0118 438.43 52.522C413.606 28.0323 380.707 42.318 367.36 52.522C344.504 66.9081 288.182 88.2529 245.74 58.5441Z" fill="#3FADE0" fill-opacity="0.8"/>
<path d="M245.74 116.408C203.299 86.9059 65.5627 104.116 2 116.408V240H509V110.428C495.82 120.561 463.255 134.748 438.43 110.428C413.606 86.1085 380.707 100.295 367.36 110.428C344.504 124.714 288.182 145.911 245.74 116.408Z" fill="url(#paint0_linear)"/>
<defs>
<linearGradient id="paint0_linear" x1="404.897" y1="96.9725" x2="2.38829" y2="240.59" gradientUnits="userSpaceOnUse">
<stop offset="0.0392889" stop-color="#398BB1"/>
<stop offset="1" stop-color="#3EA6D6"/>
</linearGradient>
</defs>
</svg>
