<svg width="1114" height="1002" viewBox="0 0 1114 1002" fill="none" xmlns="http://www.w3.org/2000/svg">
<path fill-rule="evenodd" clip-rule="evenodd" d="M390.949 25.3521L440.448 -56L489.947 25.3521C511.947 61.5088 484.447 106.704 440.448 106.704C396.45 106.704 368.95 61.5088 390.949 25.3521ZM749.768 18.4399L678.916 134.885C647.426 186.64 686.788 251.331 749.768 251.331C812.748 251.331 852.11 186.638 820.62 134.885L749.768 18.4399ZM557.003 184.379L398.206 445.367C370.654 490.648 367.303 540.349 381.854 584.118H375.775C221.841 584.118 155.632 603.465 155.632 632.487C155.632 660.787 184.267 665.461 212.65 670.093C240.54 674.646 268.187 679.158 268.187 706.008C268.187 731.555 205.192 736.325 140.265 741.241C72.0667 746.404 1.73753 751.729 0.0421978 781.463C-1.9878 817.058 69.4582 825.263 163.909 827.897C187.491 828.555 211.905 828.333 235.611 828.118C317.565 827.374 391.044 826.706 392.328 862.723C393.158 886.029 368.55 891.124 342.846 896.445C315.251 902.158 286.394 908.132 286.394 937.181C286.394 979.272 421.662 1000.8 556.947 1001.05C545.372 1001.03 533.797 1000.85 522.307 1000.52C643.326 997 753.641 976.067 753.641 937.183C753.641 908.134 724.783 902.16 697.188 896.447C671.484 891.126 646.875 886.031 647.706 862.725C648.991 826.708 722.472 827.375 804.427 828.119L804.447 828.119L804.466 828.12L804.482 828.12C808.389 828.155 812.316 828.191 816.255 828.223C762.585 829.592 722.616 836.243 721.672 862.723C721.36 871.463 724.626 877.641 730.185 882.232C730.649 882.614 731.128 882.986 731.622 883.347C741.016 890.208 755.894 893.288 771.157 896.448L771.16 896.448C786.95 899.717 803.154 903.072 814.127 910.787L780.642 975.392C809.798 965.53 827.606 952.804 827.606 937.181C827.606 929.465 825.57 923.377 822.062 918.489C820.741 916.648 819.211 914.978 817.503 913.455C816.444 912.511 815.316 911.623 814.127 910.787L901.918 741.403C969.436 746.519 1038.31 752.041 1039.99 781.463C1042.02 817.061 970.574 825.263 876.124 827.898C874.122 827.953 872.112 828.001 870.099 828.044C872.815 828.067 875.542 828.092 878.279 828.117L878.436 828.118H878.439H878.442C902.131 828.333 926.528 828.555 950.092 827.898C1044.54 825.263 1115.99 817.059 1113.96 781.463C1112.26 751.729 1041.93 746.404 973.737 741.241C949.639 739.416 925.807 737.612 905.363 734.758L945.519 657.281C953.388 651.986 958.37 644.292 958.37 632.487C958.37 625.231 954.232 618.58 945.62 612.685C919.783 595 853.678 584.116 738.227 584.116H732.152C746.702 540.348 743.351 490.648 715.8 445.367L557.003 184.379Z" fill="#82D5F2" fill-opacity="0.12"/>
</svg>
