<svg width="732" height="240" viewBox="0 0 732 240" fill="none" xmlns="http://www.w3.org/2000/svg">
<path d="M185.153 42.6513C81.2376 49.1066 18.4196 16.9068 0 0V200H732V55.9078C698.701 13.0259 661.671 29.2027 647.318 42.6513C624.592 63.9769 548.282 93.8329 424.847 42.6513C270.553 -21.3256 315.047 34.5821 185.153 42.6513Z" fill="#3FAFE2" fill-opacity="0.33"/>
<path d="M352.71 58.5441C291.793 28.8353 94.1018 46.1654 2.87061 58.5441V183H730.565V52.522C711.648 62.7261 664.907 77.0118 629.277 52.522C593.646 28.0323 546.426 42.318 527.27 52.522C494.465 66.9081 413.626 88.2529 352.71 58.5441Z" fill="#3FADE0" fill-opacity="0.8"/>
<path d="M352.71 116.408C291.793 86.9059 94.1018 104.116 2.87061 116.408V240H730.565V110.428C711.648 120.561 664.907 134.748 629.277 110.428C593.646 86.1085 546.426 100.295 527.27 110.428C494.465 124.714 413.626 145.911 352.71 116.408Z" fill="url(#paint0_linear)"/>
<defs>
<linearGradient id="paint0_linear" x1="581.147" y1="96.9725" x2="65.1957" y2="361.202" gradientUnits="userSpaceOnUse">
<stop offset="0.0392889" stop-color="#398BB1"/>
<stop offset="1" stop-color="#3EA6D6"/>
</linearGradient>
</defs>
</svg>
