<svg width="21" height="21" viewBox="0 0 21 21" fill="none" xmlns="http://www.w3.org/2000/svg">
<path d="M-7.62939e-06 7.60352H5.24036V9.39332H-7.62939e-06V7.60352Z" fill="#212C34"/>
<path d="M15.7596 7.60352H21V9.39332H15.7596V7.60352Z" fill="#212C34"/>
<path d="M0.0444202 6.37377C0.268162 5.43341 1.3043 4.50178 2.9535 3.77633C4.96925 2.8897 7.64933 2.40137 10.5 2.40137C13.3843 2.40137 16.0863 2.89946 18.1083 3.8039C19.7232 4.52622 20.7326 5.4453 20.9537 6.37377H15.7596V5.8959L15.2814 5.787C13.7922 5.44788 12.1951 5.27587 10.5347 5.27587C8.84559 5.27587 7.22441 5.4533 5.71623 5.80324L5.24053 5.91362V6.37373H0.0444202V6.37377Z" fill="#212C34"/>
<path d="M10.5 11.0737C11.6935 11.0737 12.6644 12.0447 12.6644 13.2382C12.6644 14.4317 11.6935 15.4026 10.5 15.4026C9.30652 15.4026 8.33555 14.4317 8.33555 13.2382C8.33555 12.0447 9.30648 11.0737 10.5 11.0737Z" fill="#212C34"/>
<path d="M2.60291 10.6224H6.46974V6.89748C7.75107 6.63715 9.11602 6.50537 10.5347 6.50537C11.9262 6.50537 13.2678 6.6326 14.5302 6.88386V10.6224H18.397L19.4397 12.2524V18.5981H1.56025V12.2524L2.60291 10.6224ZM10.5 16.6322C12.3713 16.6322 13.8937 15.1098 13.8937 13.2385C13.8937 11.3672 12.3713 9.8447 10.5 9.8447C8.62868 9.8447 7.10626 11.3672 7.10626 13.2385C7.10626 15.1097 8.62868 16.6322 10.5 16.6322Z" fill="#212C34"/>
</svg>
