<svg width="1179" height="172" viewBox="0 0 1179 172" fill="none" xmlns="http://www.w3.org/2000/svg">
<path d="M241.531 2.51131C239.104 3.63168 236.676 5.87239 234.996 8.29983C232.755 11.6609 232.382 13.1547 232.475 18.4764C232.475 28.1862 235.182 32.5742 244.986 39.203C259.177 48.8194 272.808 65.1579 274.862 75.1478C276.262 81.6832 277.289 83.4571 280.65 84.8576C282.798 85.6978 283.638 85.6045 285.505 84.4841C288.679 82.3368 292.321 74.2142 293.534 66.8385C296.895 45.2716 281.397 11.941 264.032 3.44495C257.683 0.363968 247.04 -0.102852 241.531 2.51131Z" fill="#094B62" fill-opacity="0.35"/>
<path d="M860.715 3.9118C851.005 6.43261 844.097 10.6339 834.107 19.9703C816.928 36.2154 807.405 58.1558 810.673 73.8408C811.98 79.9094 814.314 82.897 817.675 82.897C820.662 82.897 825.331 78.8824 827.571 74.5877C832.333 65.158 852.499 52.2739 869.865 47.5124C879.855 44.8048 883.776 42.5641 887.23 37.896C897.78 23.6114 892.459 8.39323 875.56 4.00517C869.211 2.32463 866.97 2.32463 860.715 3.9118Z" fill="#094B62" fill-opacity="0.35"/>
<path d="M385.124 18.0096C362.437 23.1445 347.872 43.1242 352.727 62.357C355.341 72.7203 361.876 79.7225 372.613 83.8305C377.001 85.5111 380.922 86.0712 393.433 86.6314C406.411 87.1916 409.958 87.7518 416.12 89.8058C434.606 96.0611 444.969 108.292 445.063 124.163C445.063 136.487 436.567 148.064 422.842 154.32C412.946 158.894 388.952 164.216 364.491 167.39C362.156 167.671 354.127 167.951 346.658 167.951C330.226 168.044 319.023 166.27 302.871 161.135C278.13 153.293 267.3 151.892 235.183 152.079C208.107 152.266 199.891 151.332 184.767 146.29C172.629 142.182 165.907 138.168 151.156 126.311C121.56 102.596 102.981 91.9531 83.9345 88.0319C61.3406 83.3637 41.0808 90.7394 35.3857 105.584C33.0516 111.839 33.7051 120.709 36.9729 125.657C40.4273 130.699 45.5623 133.033 59.9402 135.647C72.4508 137.888 74.9716 138.728 78.5194 141.996C84.2146 147.131 80.8535 156.467 71.7973 160.948C67.3158 163.096 64.795 163.563 54.245 164.216C41.1742 165.056 31.1843 166.737 20.4476 169.911C12.9785 172.059 0.934702 177.38 0.00107085 178.967C-0.465745 179.714 151.623 179.994 591.083 179.901C1176.56 179.808 1182.72 179.808 1176.75 178.034C1157.42 172.339 1144.73 167.857 1131.47 162.069C1090.86 144.423 1077.97 140.315 1060.51 139.195C1048.75 138.541 1035.49 140.502 1022.33 145.077C1007.86 150.025 1000.01 149.185 993.758 142.089C984.795 131.819 990.77 118.935 1006.36 114.734C1008.42 114.267 1014.76 113.147 1020.37 112.306C1053.14 107.638 1062.75 100.636 1065.65 79.4425C1068.17 60.5831 1060.7 47.3256 1042.31 38.0826C1030.54 32.2007 1019.15 29.5866 1004.96 29.4932C984.795 29.4932 968.55 33.8813 943.808 46.0185C919.814 57.7822 902.449 69.7327 866.597 99.0487C836.348 123.697 818.235 135.367 795.641 144.89C772.02 154.786 746.812 160.388 725.992 160.388C711.708 160.388 704.986 158.428 686.406 148.905C666.613 138.728 659.705 136.954 638.044 136.301C626 136.02 618.438 136.301 603.5 137.981C557.005 143.023 531.33 136.674 507.429 114.08C497.72 105.024 491.464 96.808 473.445 69.9194C450.945 36.2153 440.488 26.1321 421.909 19.7834C415.747 17.7295 412.479 17.2626 402.769 16.9826C394.833 16.7025 389.138 17.0759 385.124 18.0096Z" fill="#094B62" fill-opacity="0.35"/>
<path d="M751.293 20.437C746.532 21.8374 737.662 30.7069 733.928 37.8025C730.1 45.2716 728.98 51.1534 730.473 56.5685C731.314 59.8362 731.874 60.4897 733.741 60.4897C735.422 60.4897 736.542 59.5561 737.849 56.8486C740.37 51.9937 747.372 46.1118 754.748 42.6574C758.109 41.0702 761.843 39.2963 762.964 38.7361C768.099 36.2153 769.592 26.5989 765.485 22.7711C762.03 19.5967 757.082 18.7564 751.293 20.437Z" fill="#094B62" fill-opacity="0.35"/>
<path d="M523.114 24.0784C518.352 26.5992 512.377 33.6014 510.697 38.7364C508.269 45.832 507.896 53.5811 509.576 62.6373C513.777 84.671 525.074 102.877 539.172 109.879C546.548 113.52 551.496 113.8 553.644 110.439C555.511 107.638 554.951 103.53 552.056 99.5158C548.695 94.941 547.388 88.5923 546.828 75.8949C546.361 65.4382 546.641 62.2639 548.415 54.0479C550.843 42.751 550.563 37.9895 547.108 32.1076C543.28 25.5722 539.079 22.7713 532.17 22.4912C527.875 22.3045 525.635 22.6779 523.114 24.0784Z" fill="#094B62" fill-opacity="0.35"/>
<path d="M28.8503 27.2527C18.9538 31.5474 18.2069 44.1514 27.6366 48.6329C30.064 49.7532 32.6782 49.9399 39.587 49.5665C49.9503 49.0063 59.4734 50.8736 64.9818 54.4214C77.2124 62.544 76.5588 48.2594 64.2349 37.2426C53.4981 27.7195 37.9065 23.3315 28.8503 27.2527Z" fill="#094B62" fill-opacity="0.35"/>
<path d="M1140.71 30.9869C1129.41 35.1882 1119.89 44.898 1119.8 52.3671C1119.8 56.2883 1122.04 56.3817 1128.85 52.9272C1135.02 49.7529 1135.3 49.7529 1147.71 49.7529C1156.12 49.7529 1161.16 49.2861 1162.46 48.5392C1169.75 44.4312 1168.81 34.2546 1160.88 30.1466C1156.86 28.0927 1147.43 28.4661 1140.71 30.9869Z" fill="#094B62" fill-opacity="0.35"/>
<path d="M144.621 30.8935C138.925 32.7608 135.844 35.1882 133.697 39.3896C131.083 44.5245 131.736 52.4604 135.471 58.3423C138.179 62.8237 139.952 63.9441 153.49 70.1994C160.399 73.3737 173.283 83.2702 178.045 89.0587C179.352 90.5525 181.499 94.1937 182.713 97.0879C188.315 109.692 196.904 104.837 198.118 88.4985C199.518 69.079 182.433 41.2568 163.947 32.6674C157.972 29.9599 149.756 29.213 144.621 30.8935Z" fill="#094B62" fill-opacity="0.35"/>
<path d="M640.845 47.8857C613.023 53.8609 589.962 72.3468 585.761 91.9531C583.427 102.877 590.242 106.518 599.859 99.5155C605.927 95.1274 610.689 93.3535 620.679 91.7663C632.349 89.8991 641.032 89.7124 652.235 91.2995C662.599 92.7 665.96 92.1398 672.588 87.6584C680.524 82.3367 684.352 72.907 681.925 64.8778C680.338 59.4627 671.655 51.06 665.586 48.9127C659.144 46.7653 648.221 46.2985 640.845 47.8857Z" fill="#094B62" fill-opacity="0.35"/>
<path d="M1112.98 90.5526C1108.97 91.673 1100.47 98.9553 1096.55 104.744C1095.06 106.891 1093.28 110.439 1092.63 112.68C1091.51 116.601 1091.51 116.788 1093.75 118.655C1095.71 120.242 1096.92 120.429 1103.46 119.962C1114.2 119.215 1124.37 115.481 1128.67 110.812C1131.47 107.731 1131.93 106.518 1131.93 102.596C1131.93 93.6336 1122.88 87.8451 1112.98 90.5526Z" fill="#094B62" fill-opacity="0.35"/>
<path d="M736.729 96.5279C728.326 99.142 712.081 117.068 708.533 127.711C706.573 133.78 707.039 136.861 710.214 139.288C715.349 143.116 730.847 141.249 747.372 134.993C759.323 130.512 765.951 123.043 765.951 114.173C765.951 108.292 764.084 104.37 759.509 100.449C753.347 95.2208 745.505 93.8203 736.729 96.5279Z" fill="#094B62" fill-opacity="0.35"/>
<path d="M232.195 99.2352C228.741 100.729 227.247 103.156 227.247 107.171C227.247 112.68 229.487 115.294 237.797 119.215C246.013 123.136 253.575 129.485 256.376 134.9C258.617 139.101 261.324 139.008 262.725 134.62C267.206 121.176 251.428 97.8348 237.983 97.9281C236.49 97.9281 233.875 98.4883 232.195 99.2352Z" fill="#094B62" fill-opacity="0.35"/>
<path d="M343.11 103.063C335.361 105.957 329.946 113.613 329.946 121.642C329.946 125.377 332.84 131.352 336.108 134.433C342.27 140.222 358.702 145.357 373.36 146.01C381.202 146.477 383.256 146.197 385.964 144.796C389.138 143.209 389.231 142.929 389.231 137.888C389.231 133.686 388.578 131.726 385.964 127.244C381.669 120.055 369.905 108.291 363.65 104.93C357.488 101.663 349.179 100.916 343.11 103.063Z" fill="#094B62" fill-opacity="0.35"/>
<path d="M1158.92 127.711C1153.31 128.645 1147.71 131.632 1144.63 135.18C1140.99 139.568 1141.92 142.463 1146.41 140.689C1149.95 139.288 1157.14 139.848 1164.24 142.089C1170.77 144.236 1171.71 144.33 1174.6 143.116C1178.43 141.529 1179.83 138.261 1178.52 134.34C1176.66 128.925 1168.25 126.124 1158.92 127.711Z" fill="#094B62" fill-opacity="0.35"/>
<path d="M12.4183 134.527C10.0842 136.301 8.59043 139.755 9.33733 141.996C10.3643 145.544 12.605 147.317 18.8604 149.185C29.4104 152.452 34.1719 151.239 32.1179 145.917C30.8108 142.556 26.4228 137.234 23.0617 135.087C20.0741 133.126 14.659 132.846 12.4183 134.527Z" fill="#094B62" fill-opacity="0.35"/>
</svg>
