<svg width="371" height="222" viewBox="0 0 371 222" fill="none" xmlns="http://www.w3.org/2000/svg">
<g clip-path="url(#clip0)">
<path d="M284.046 219.49C279.297 215.472 276.411 209.127 277.168 202.949C277.925 196.771 282.611 191.092 288.69 189.78C294.768 188.469 301.698 192.1 303.544 198.043C304.56 186.585 305.731 174.647 311.818 164.889C317.329 156.053 326.875 149.731 337.22 148.6C347.565 147.469 358.458 151.741 364.91 159.914C371.362 168.086 372.942 179.967 368.423 189.35C365.094 196.262 358.961 201.406 352.535 205.591C331.771 219 306.867 224.453 282.406 220.946L284.046 219.49Z" fill="#F2F2F2"/>
<path d="M354.679 151.978C346.143 158.937 338.312 166.72 331.3 175.214C320.325 188.463 311.444 203.317 304.966 219.258C304.492 220.421 306.379 220.928 306.848 219.778C317.446 193.869 334.366 171.033 356.059 153.359C357.033 152.565 355.646 151.19 354.679 151.978Z" fill="white"/>
<path d="M119.431 218.398C125.955 212.881 129.917 204.165 128.878 195.68C127.839 187.195 121.402 179.394 113.053 177.593C104.704 175.791 95.1867 180.779 92.6508 188.942C91.2551 173.204 89.6469 156.806 81.2869 143.404C73.7171 131.268 60.6062 122.585 46.3968 121.032C32.1875 119.478 17.2269 125.345 8.36501 136.57C-0.49684 147.796 -2.66663 164.114 3.53998 177.002C8.11217 186.495 16.5358 193.561 25.3616 199.309C53.519 217.647 88.4483 225.295 121.684 220.399" fill="#F2F2F2"/>
<path d="M22.4164 125.671C34.1409 135.229 44.8968 145.919 54.5287 157.586C64.1621 169.241 72.6433 181.804 79.8531 195.099C83.8831 202.556 87.5033 210.228 90.6976 218.081C91.3489 219.678 88.7573 220.373 88.1132 218.794C82.4553 204.95 75.4555 191.694 67.214 179.217C59.0125 166.785 49.6255 155.179 39.1848 144.561C33.2795 138.558 27.049 132.885 20.5213 127.567C19.1833 126.477 21.0894 124.589 22.4164 125.671L22.4164 125.671Z" fill="white"/>
<path d="M266.31 221.514H110.66V61.674C110.66 27.6668 138.303 0 172.28 0H204.69C238.667 0 266.31 27.6668 266.31 61.674V221.514Z" fill="#F2F2F2"/>
<path d="M233.901 221.514H110.66V61.6739C110.626 48.6431 114.749 35.9417 122.428 25.4188C122.711 25.0327 122.994 24.6515 123.285 24.2745C126.999 19.3986 131.419 15.1046 136.4 11.534C136.681 11.3291 136.963 11.1278 137.25 10.9265C141.417 8.04016 145.925 5.68064 150.671 3.90164C150.953 3.79473 151.24 3.68761 151.526 3.58486C155.819 2.05179 160.268 1.00165 164.792 0.453822C165.073 0.415473 165.361 0.385465 165.649 0.355456C170.058 -0.116369 174.504 -0.116369 178.913 0.355456C179.2 0.385465 179.488 0.415469 179.772 0.454232C184.295 1.0021 188.743 2.05211 193.034 3.58488C193.321 3.68763 193.608 3.79474 193.891 3.90186C198.578 5.65842 203.033 7.98273 207.156 10.8229C207.442 11.0199 207.729 11.2212 208.012 11.4225C210.803 13.4169 213.425 15.6387 215.851 18.0654C217.796 20.0118 219.609 22.0866 221.277 24.2758C221.567 24.6515 221.85 25.0327 222.132 25.4182C229.812 35.9412 233.935 48.6428 233.901 61.6739V221.514Z" fill="#CCCCCC"/>
<path d="M223.879 150.023C227.648 150.023 230.702 146.966 230.702 143.195C230.702 139.423 227.648 136.366 223.879 136.366C220.111 136.366 217.056 139.423 217.056 143.195C217.056 146.966 220.111 150.023 223.879 150.023Z" fill="#3EA6D6"/>
<path d="M253.559 216.727H248.331L245.844 196.544L253.56 196.544L253.559 216.727Z" fill="#FFB8B8"/>
<path d="M244.596 215.231H254.679V221.585H238.248C238.248 220.751 238.412 219.925 238.731 219.154C239.05 218.383 239.518 217.682 240.107 217.092C240.697 216.502 241.397 216.034 242.167 215.715C242.937 215.396 243.763 215.231 244.596 215.231Z" fill="#2F2E41"/>
<path d="M279.571 216.727H274.343L271.856 196.544L279.572 196.544L279.571 216.727Z" fill="#FFB8B8"/>
<path d="M270.609 215.231H280.692V221.585H264.261C264.261 220.751 264.425 219.925 264.744 219.154C265.063 218.383 265.531 217.682 266.12 217.092C266.71 216.502 267.409 216.034 268.18 215.715C268.95 215.396 269.775 215.231 270.609 215.231Z" fill="#2F2E41"/>
<path d="M227.332 144.547C226.956 143.993 226.706 143.362 226.6 142.701C226.494 142.039 226.533 141.362 226.717 140.717C226.9 140.072 227.223 139.476 227.661 138.969C228.1 138.463 228.644 138.059 229.256 137.785L247.028 88.7593L255.773 93.5359L235.481 140.387C235.871 141.446 235.86 142.611 235.45 143.662C235.039 144.713 234.257 145.577 233.253 146.09C232.249 146.603 231.091 146.729 230 146.445C228.909 146.16 227.96 145.485 227.332 144.547Z" fill="#FFB8B8"/>
<path d="M276.901 153.76C276.32 153.426 275.819 152.969 275.434 152.421C275.048 151.873 274.787 151.247 274.67 150.587C274.552 149.927 274.58 149.25 274.753 148.602C274.925 147.954 275.237 147.352 275.667 146.838L270.162 94.9768L280.114 95.4319L282.402 146.444C283.217 147.225 283.717 148.277 283.808 149.402C283.9 150.526 283.576 151.646 282.898 152.547C282.22 153.449 281.235 154.071 280.129 154.294C279.024 154.517 277.875 154.327 276.901 153.76Z" fill="#FFB8B8"/>
<path d="M261.024 79.6783C266.809 79.6783 271.498 74.9849 271.498 69.1954C271.498 63.4059 266.809 58.7125 261.024 58.7125C255.24 58.7125 250.551 63.4059 250.551 69.1954C250.551 74.9849 255.24 79.6783 261.024 79.6783Z" fill="#FFB8B8"/>
<path d="M276.834 141.965H245.258L245.296 141.719C245.353 141.351 250.923 104.826 246.815 92.8765C246.402 91.7022 246.439 90.4168 246.916 89.2677C247.394 88.1185 248.28 87.1869 249.403 86.6521H249.403C255.276 83.8841 266.549 80.4757 276.064 88.7474C277.464 89.9846 278.557 91.531 279.257 93.264C279.958 94.9971 280.245 96.8695 280.098 98.733L276.834 141.965Z" fill="#3EA6D6"/>
<path d="M251.322 110.224L237.106 107.337L243.77 91.5324C244.169 90.0017 245.158 88.6917 246.52 87.8899C247.883 87.088 249.507 86.8598 251.038 87.2552C252.568 87.6506 253.879 88.6374 254.684 89.9992C255.488 91.3609 255.72 92.9864 255.329 94.5191L251.322 110.224Z" fill="#3EA6D6"/>
<path d="M269.53 115.583L268.675 95.9752C268.027 92.2892 270.135 88.8047 273.377 88.2351C276.621 87.6676 279.787 90.2241 280.438 93.9372L283.651 112.259L269.53 115.583Z" fill="#3EA6D6"/>
<path d="M275.783 139.617C280.864 158.984 281.418 183.608 280.048 210.468L273.225 209.614L260.858 158.397L254.035 210.468L246.359 210.041C244.066 181.859 241.833 157.665 245.506 141.751L275.783 139.617Z" fill="#2F2E41"/>
<path d="M267.926 77.2969C265.972 79.38 262.343 78.2618 262.088 75.4159C262.068 75.1949 262.07 74.9725 262.093 74.7519C262.224 73.4913 262.952 72.3468 262.778 71.0158C262.738 70.6845 262.615 70.3688 262.419 70.0986C260.862 68.0118 257.207 71.032 255.738 69.1428C254.837 67.9845 255.896 66.1607 255.204 64.866C254.292 63.1572 251.589 64.0001 249.894 63.0643C248.008 62.0232 248.12 59.1269 249.362 57.3653C250.876 55.2169 253.531 54.0705 256.152 53.9053C258.774 53.7401 261.377 54.4494 263.825 55.404C266.606 56.4887 269.363 57.9877 271.075 60.4351C273.156 63.4113 273.356 67.4125 272.315 70.8926C271.682 73.0096 269.521 75.5958 267.926 77.2969Z" fill="#2F2E41"/>
<path d="M358.199 221.789H43.3632C43.2288 221.788 43.1 221.735 43.0051 221.639C42.9102 221.544 42.8569 221.415 42.8569 221.281C42.8569 221.146 42.9102 221.017 43.0051 220.922C43.1 220.826 43.2288 220.773 43.3632 220.772H358.199C358.333 220.773 358.462 220.826 358.557 220.922C358.652 221.017 358.705 221.146 358.705 221.281C358.705 221.415 358.652 221.544 358.557 221.639C358.462 221.735 358.333 221.788 358.199 221.789Z" fill="#3FB0E3"/>
<path d="M199.999 175.205H144.562C143.832 175.209 143.13 174.923 142.611 174.41C142.091 173.896 141.796 173.198 141.79 172.467V48.6201C141.796 47.8894 142.091 47.1907 142.611 46.6774C143.13 46.1641 143.832 45.8781 144.562 45.882H199.999C200.729 45.8781 201.431 46.1641 201.95 46.6774C202.47 47.1907 202.765 47.8894 202.771 48.6201V172.467C202.765 173.198 202.47 173.896 201.95 174.41C201.431 174.923 200.729 175.209 199.999 175.205Z" fill="white"/>
<path d="M202.771 85.955H141.79V86.8086H202.771V85.955Z" fill="#CCCCCC"/>
<path d="M202.984 134.658H142.003V135.512H202.984V134.658Z" fill="#CCCCCC"/>
<path d="M161.833 45.882H160.98V175.632H161.833V45.882Z" fill="#CCCCCC"/>
<path d="M183.155 45.882H182.302V175.632H183.155V45.882Z" fill="#CCCCCC"/>
</g>
<defs>
<clipPath id="clip0">
<rect width="371" height="222" fill="white"/>
</clipPath>
</defs>
</svg>
